<svg xmlns="http://www.w3.org/2000/svg" width="980" height="470" viewBox="0 0 980 470">
  <rect width="100%" height="100%" fill="white"/>
  <text x="490.0" y="28" text-anchor="middle" font-family="Arial, sans-serif" font-size="18" font-weight="700">AdaEvolve run score history</text>
  <line x1="70" y1="410.0" x2="950" y2="410.0" stroke="#eee"/>
  <text x="62" y="414.0" text-anchor="end" font-family="Arial" font-size="11">0.000</text>
  <line x1="70" y1="323.8" x2="950" y2="323.8" stroke="#eee"/>
  <text x="62" y="327.8" text-anchor="end" font-family="Arial" font-size="11">0.232</text>
  <line x1="70" y1="237.5" x2="950" y2="237.5" stroke="#eee"/>
  <text x="62" y="241.5" text-anchor="end" font-family="Arial" font-size="11">0.465</text>
  <line x1="70" y1="151.2" x2="950" y2="151.2" stroke="#eee"/>
  <text x="62" y="155.2" text-anchor="end" font-family="Arial" font-size="11">0.697</text>
  <line x1="70" y1="65.0" x2="950" y2="65.0" stroke="#eee"/>
  <text x="62" y="69.0" text-anchor="end" font-family="Arial" font-size="11">0.929</text>
  <line x1="70" y1="65" x2="70" y2="410" stroke="#333"/>
  <line x1="70" y1="410" x2="950" y2="410" stroke="#333"/>
  <polyline points="70.0,74.0 100.3,74.0 130.7,71.0 161.0,69.8 191.4,69.8 221.7,69.8 252.1,69.8 282.4,69.8 312.8,69.8 343.1,69.8 373.4,69.8 403.8,69.8 434.1,69.8 464.5,69.8 494.8,69.8 525.2,69.8 555.5,69.8 585.9,69.8 616.2,68.4 646.6,68.4 676.9,68.4 707.2,68.4 737.6,68.4 767.9,68.4 798.3,68.4 828.6,68.4 859.0,68.4 889.3,68.4 919.7,68.4 950.0,68.4" fill="none" stroke="#4C78A8" stroke-width="2"/>
  <circle cx="70.0" cy="74.0" r="3" fill="#4C78A8"/>
  <circle cx="100.3" cy="74.0" r="3" fill="#4C78A8"/>
  <circle cx="130.7" cy="71.0" r="3" fill="#4C78A8"/>
  <circle cx="161.0" cy="69.8" r="3" fill="#4C78A8"/>
  <circle cx="191.4" cy="69.8" r="3" fill="#4C78A8"/>
  <circle cx="221.7" cy="69.8" r="3" fill="#4C78A8"/>
  <circle cx="252.1" cy="69.8" r="3" fill="#4C78A8"/>
  <circle cx="282.4" cy="69.8" r="3" fill="#4C78A8"/>
  <circle cx="312.8" cy="69.8" r="3" fill="#4C78A8"/>
  <circle cx="343.1" cy="69.8" r="3" fill="#4C78A8"/>
  <circle cx="373.4" cy="69.8" r="3" fill="#4C78A8"/>
  <circle cx="403.8" cy="69.8" r="3" fill="#4C78A8"/>
  <circle cx="434.1" cy="69.8" r="3" fill="#4C78A8"/>
  <circle cx="464.5" cy="69.8" r="3" fill="#4C78A8"/>
  <circle cx="494.8" cy="69.8" r="3" fill="#4C78A8"/>
  <circle cx="525.2" cy="69.8" r="3" fill="#4C78A8"/>
  <circle cx="555.5" cy="69.8" r="3" fill="#4C78A8"/>
  <circle cx="585.9" cy="69.8" r="3" fill="#4C78A8"/>
  <circle cx="616.2" cy="68.4" r="3" fill="#4C78A8"/>
  <circle cx="646.6" cy="68.4" r="3" fill="#4C78A8"/>
  <circle cx="676.9" cy="68.4" r="3" fill="#4C78A8"/>
  <circle cx="707.2" cy="68.4" r="3" fill="#4C78A8"/>
  <circle cx="737.6" cy="68.4" r="3" fill="#4C78A8"/>
  <circle cx="767.9" cy="68.4" r="3" fill="#4C78A8"/>
  <circle cx="798.3" cy="68.4" r="3" fill="#4C78A8"/>
  <circle cx="828.6" cy="68.4" r="3" fill="#4C78A8"/>
  <circle cx="859.0" cy="68.4" r="3" fill="#4C78A8"/>
  <circle cx="889.3" cy="68.4" r="3" fill="#4C78A8"/>
  <circle cx="919.7" cy="68.4" r="3" fill="#4C78A8"/>
  <circle cx="950.0" cy="68.4" r="3" fill="#4C78A8"/>
  <polyline points="70.0,410.0 100.3,80.7 130.7,71.0 161.0,69.8 191.4,86.5 221.7,69.8 252.1,69.8 282.4,69.8 312.8,69.8 343.1,72.7 373.4,71.8 403.8,72.7 434.1,76.9 464.5,92.4 494.8,279.0 525.2,410.0 555.5,92.4 585.9,94.6 616.2,68.4 646.6,68.9 676.9,82.8 707.2,86.5 737.6,68.6 767.9,82.8 798.3,87.3 828.6,410.0 859.0,68.4 889.3,74.7 919.7,410.0 950.0,68.4" fill="none" stroke="#F58518" stroke-width="2"/>
  <circle cx="70.0" cy="410.0" r="3" fill="#F58518"/>
  <circle cx="100.3" cy="80.7" r="3" fill="#F58518"/>
  <circle cx="130.7" cy="71.0" r="3" fill="#F58518"/>
  <circle cx="161.0" cy="69.8" r="3" fill="#F58518"/>
  <circle cx="191.4" cy="86.5" r="3" fill="#F58518"/>
  <circle cx="221.7" cy="69.8" r="3" fill="#F58518"/>
  <circle cx="252.1" cy="69.8" r="3" fill="#F58518"/>
  <circle cx="282.4" cy="69.8" r="3" fill="#F58518"/>
  <circle cx="312.8" cy="69.8" r="3" fill="#F58518"/>
  <circle cx="343.1" cy="72.7" r="3" fill="#F58518"/>
  <circle cx="373.4" cy="71.8" r="3" fill="#F58518"/>
  <circle cx="403.8" cy="72.7" r="3" fill="#F58518"/>
  <circle cx="434.1" cy="76.9" r="3" fill="#F58518"/>
  <circle cx="464.5" cy="92.4" r="3" fill="#F58518"/>
  <circle cx="494.8" cy="279.0" r="3" fill="#F58518"/>
  <circle cx="525.2" cy="410.0" r="3" fill="#F58518"/>
  <circle cx="555.5" cy="92.4" r="3" fill="#F58518"/>
  <circle cx="585.9" cy="94.6" r="3" fill="#F58518"/>
  <circle cx="616.2" cy="68.4" r="3" fill="#F58518"/>
  <circle cx="646.6" cy="68.9" r="3" fill="#F58518"/>
  <circle cx="676.9" cy="82.8" r="3" fill="#F58518"/>
  <circle cx="707.2" cy="86.5" r="3" fill="#F58518"/>
  <circle cx="737.6" cy="68.6" r="3" fill="#F58518"/>
  <circle cx="767.9" cy="82.8" r="3" fill="#F58518"/>
  <circle cx="798.3" cy="87.3" r="3" fill="#F58518"/>
  <circle cx="828.6" cy="410.0" r="3" fill="#F58518"/>
  <circle cx="859.0" cy="68.4" r="3" fill="#F58518"/>
  <circle cx="889.3" cy="74.7" r="3" fill="#F58518"/>
  <circle cx="919.7" cy="410.0" r="3" fill="#F58518"/>
  <circle cx="950.0" cy="68.4" r="3" fill="#F58518"/>
  <circle cx="70.0" cy="410.0" r="3" fill="#E45756"/>
  <circle cx="100.3" cy="80.7" r="3" fill="#E45756"/>
  <circle cx="130.7" cy="71.0" r="3" fill="#E45756"/>
  <circle cx="161.0" cy="69.8" r="3" fill="#E45756"/>
  <circle cx="191.4" cy="86.5" r="3" fill="#E45756"/>
  <circle cx="221.7" cy="69.8" r="3" fill="#E45756"/>
  <circle cx="252.1" cy="69.8" r="3" fill="#E45756"/>
  <circle cx="282.4" cy="69.8" r="3" fill="#E45756"/>
  <circle cx="312.8" cy="69.8" r="3" fill="#E45756"/>
  <circle cx="343.1" cy="72.7" r="3" fill="#E45756"/>
  <circle cx="373.4" cy="71.8" r="3" fill="#E45756"/>
  <circle cx="403.8" cy="72.7" r="3" fill="#E45756"/>
  <circle cx="434.1" cy="76.9" r="3" fill="#E45756"/>
  <circle cx="464.5" cy="92.4" r="3" fill="#E45756"/>
  <circle cx="494.8" cy="279.0" r="3" fill="#E45756"/>
  <circle cx="525.2" cy="410.0" r="3" fill="#E45756"/>
  <circle cx="555.5" cy="92.4" r="3" fill="#E45756"/>
  <circle cx="585.9" cy="94.6" r="3" fill="#E45756"/>
  <circle cx="616.2" cy="68.4" r="3" fill="#E45756"/>
  <circle cx="646.6" cy="68.9" r="3" fill="#E45756"/>
  <circle cx="676.9" cy="82.8" r="3" fill="#E45756"/>
  <circle cx="707.2" cy="86.5" r="3" fill="#E45756"/>
  <circle cx="737.6" cy="68.6" r="3" fill="#E45756"/>
  <circle cx="767.9" cy="82.8" r="3" fill="#E45756"/>
  <circle cx="798.3" cy="87.3" r="3" fill="#E45756"/>
  <circle cx="828.6" cy="410.0" r="3" fill="#E45756"/>
  <circle cx="859.0" cy="68.4" r="3" fill="#E45756"/>
  <circle cx="889.3" cy="74.7" r="3" fill="#E45756"/>
  <circle cx="919.7" cy="410.0" r="3" fill="#E45756"/>
  <circle cx="950.0" cy="68.4" r="3" fill="#E45756"/>
  <rect x="90" y="38" width="14" height="10" fill="#4C78A8"/><text x="110" y="47" font-family="Arial" font-size="12">Global best</text>
  <rect x="240" y="38" width="14" height="10" fill="#F58518"/><text x="260" y="47" font-family="Arial" font-size="12">Iteration best</text>
  <rect x="390" y="38" width="14" height="10" fill="#E45756"/><text x="410" y="47" font-family="Arial" font-size="12">Child</text>
  <text x="490.0" y="452" text-anchor="middle" font-family="Arial" font-size="13">AdaEvolve iteration</text>
  <text x="22" y="235.0" text-anchor="middle" font-family="Arial" font-size="13" transform="rotate(-90 22,235.0)">Combined score</text>
</svg>
