<svg xmlns="http://www.w3.org/2000/svg" width="1180" height="700" viewBox="0 0 1180 700">
  <rect width="100%" height="100%" fill="white"/>
  <text x="590.0" y="28" text-anchor="middle" font-family="Arial, sans-serif" font-size="18" font-weight="700">Point-weighted NMSE concentrates reward pressure in a few datasets</text>
  <line x1="340" y1="70" x2="340" y2="630" stroke="#333"/>
  <line x1="340" y1="630" x2="1140" y2="630" stroke="#333"/>
  <line x1="340.0" y1="70" x2="340.0" y2="630" stroke="#eee"/>
  <text x="340.0" y="652" text-anchor="middle" font-family="Arial" font-size="12">0%</text>
  <line x1="500.0" y1="70" x2="500.0" y2="630" stroke="#eee"/>
  <text x="500.0" y="652" text-anchor="middle" font-family="Arial" font-size="12">8%</text>
  <line x1="660.0" y1="70" x2="660.0" y2="630" stroke="#eee"/>
  <text x="660.0" y="652" text-anchor="middle" font-family="Arial" font-size="12">17%</text>
  <line x1="820.0" y1="70" x2="820.0" y2="630" stroke="#eee"/>
  <text x="820.0" y="652" text-anchor="middle" font-family="Arial" font-size="12">25%</text>
  <line x1="980.0" y1="70" x2="980.0" y2="630" stroke="#eee"/>
  <text x="980.0" y="652" text-anchor="middle" font-family="Arial" font-size="12">33%</text>
  <line x1="1140.0" y1="70" x2="1140.0" y2="630" stroke="#eee"/>
  <text x="1140.0" y="652" text-anchor="middle" font-family="Arial" font-size="12">41%</text>
  <text x="328" y="97.3" text-anchor="end" font-family="Arial" font-size="12">Ab40_sec_IN_HOURS</text>
  <rect x="340" y="79.3" width="695.7" height="12" fill="#4C78A8"/>
  <text x="1040.7" y="89.3" font-family="Arial" font-size="11">35.9%</text>
  <rect x="340" y="95.3" width="615.0" height="12" fill="#F58518"/>
  <text x="960.0" y="105.3" font-family="Arial" font-size="11">31.7%</text>
  <text x="328" y="144.0" text-anchor="end" font-family="Arial" font-size="12">Ab42_in_seconds</text>
  <rect x="340" y="126.0" width="30.3" height="12" fill="#4C78A8"/>
  <text x="375.3" y="136.0" font-family="Arial" font-size="11">1.6%</text>
  <rect x="340" y="142.0" width="492.5" height="12" fill="#F58518"/>
  <text x="837.5" y="152.0" font-family="Arial" font-size="11">25.4%</text>
  <text x="328" y="190.7" text-anchor="end" font-family="Arial" font-size="12">Nielsen2001_seeded_sec</text>
  <rect x="340" y="172.7" width="6.8" height="12" fill="#4C78A8"/>
  <text x="351.8" y="182.7" font-family="Arial" font-size="11">0.4%</text>
  <rect x="340" y="188.7" width="329.9" height="12" fill="#F58518"/>
  <text x="674.9" y="198.7" font-family="Arial" font-size="11">17.0%</text>
  <text x="328" y="237.3" text-anchor="end" font-family="Arial" font-size="12">03uM_seed all</text>
  <rect x="340" y="219.3" width="75.0" height="12" fill="#4C78A8"/>
  <text x="420.0" y="229.3" font-family="Arial" font-size="11">3.9%</text>
  <rect x="340" y="235.3" width="204.0" height="12" fill="#F58518"/>
  <text x="549.0" y="245.3" font-family="Arial" font-size="11">10.5%</text>
  <text x="328" y="284.0" text-anchor="end" font-family="Arial" font-size="12">CsgA_IN_HOURS</text>
  <rect x="340" y="266.0" width="548.3" height="12" fill="#4C78A8"/>
  <text x="893.3" y="276.0" font-family="Arial" font-size="11">28.3%</text>
  <rect x="340" y="282.0" width="99.9" height="12" fill="#F58518"/>
  <text x="444.9" y="292.0" font-family="Arial" font-size="11">5.2%</text>
  <text x="328" y="330.7" text-anchor="end" font-family="Arial" font-size="12">Ab42_sec_IN_HOURS</text>
  <rect x="340" y="312.7" width="368.7" height="12" fill="#4C78A8"/>
  <text x="713.7" y="322.7" font-family="Arial" font-size="11">19.0%</text>
  <rect x="340" y="328.7" width="66.8" height="12" fill="#F58518"/>
  <text x="411.8" y="338.7" font-family="Arial" font-size="11">3.4%</text>
  <text x="328" y="377.3" text-anchor="end" font-family="Arial" font-size="12">Fig4C</text>
  <rect x="340" y="359.3" width="2.9" height="12" fill="#4C78A8"/>
  <text x="347.9" y="369.3" font-family="Arial" font-size="11">0.1%</text>
  <rect x="340" y="375.3" width="44.5" height="12" fill="#F58518"/>
  <text x="389.5" y="385.3" font-family="Arial" font-size="11">2.3%</text>
  <text x="328" y="424.0" text-anchor="end" font-family="Arial" font-size="12">Kakkar2016_6kDa_polyQ_with_see</text>
  <rect x="340" y="406.0" width="20.9" height="12" fill="#4C78A8"/>
  <text x="365.9" y="416.0" font-family="Arial" font-size="11">1.1%</text>
  <rect x="340" y="422.0" width="41.6" height="12" fill="#F58518"/>
  <text x="386.6" y="432.0" font-family="Arial" font-size="11">2.1%</text>
  <text x="328" y="470.7" text-anchor="end" font-family="Arial" font-size="12">CsgA_5uM_mon_seeded</text>
  <rect x="340" y="452.7" width="112.3" height="12" fill="#4C78A8"/>
  <text x="457.3" y="462.7" font-family="Arial" font-size="11">5.8%</text>
  <rect x="340" y="468.7" width="16.5" height="12" fill="#F58518"/>
  <text x="361.5" y="478.7" font-family="Arial" font-size="11">0.9%</text>
  <text x="328" y="517.3" text-anchor="end" font-family="Arial" font-size="12">Kar2011_Q30_without_lowest_con</text>
  <rect x="340" y="499.3" width="6.5" height="12" fill="#4C78A8"/>
  <text x="351.5" y="509.3" font-family="Arial" font-size="11">0.3%</text>
  <rect x="340" y="515.3" width="5.7" height="12" fill="#F58518"/>
  <text x="350.7" y="525.3" font-family="Arial" font-size="11">0.3%</text>
  <text x="328" y="564.0" text-anchor="end" font-family="Arial" font-size="12">Kar2011_Q37_sec</text>
  <rect x="340" y="546.0" width="4.8" height="12" fill="#4C78A8"/>
  <text x="349.8" y="556.0" font-family="Arial" font-size="11">0.2%</text>
  <rect x="340" y="562.0" width="5.6" height="12" fill="#F58518"/>
  <text x="350.6" y="572.0" font-family="Arial" font-size="11">0.3%</text>
  <text x="328" y="610.7" text-anchor="end" font-family="Arial" font-size="12">Kakkar2016_14kDa_Ex45_polyQ_se</text>
  <rect x="340" y="592.7" width="15.2" height="12" fill="#4C78A8"/>
  <text x="360.2" y="602.7" font-family="Arial" font-size="11">0.8%</text>
  <rect x="340" y="608.7" width="3.8" height="12" fill="#F58518"/>
  <text x="348.8" y="618.7" font-family="Arial" font-size="11">0.2%</text>
  <rect x="340" y="45" width="14" height="10" fill="#4C78A8"/><text x="360" y="54" font-family="Arial" font-size="12">Validation point share</text>
  <rect x="530" y="45" width="14" height="10" fill="#F58518"/><text x="550" y="54" font-family="Arial" font-size="12">Aggregate NMSE share</text>
  <text x="590.0" y="682" text-anchor="middle" font-family="Arial" font-size="13">Share of aggregate (%)</text>
</svg>
