<svg xmlns="http://www.w3.org/2000/svg" width="1120" height="520" viewBox="0 0 1120 520">
  <rect width="100%" height="100%" fill="white"/>
  <text x="560.0" y="28" text-anchor="middle" font-family="Arial, sans-serif" font-size="18" font-weight="700">Where the current loss places pressure inside curves</text>
  <text x="295.0" y="58" text-anchor="middle" font-family="Arial" font-size="15" font-weight="700">By normalized time x0</text>
  <line x1="60" y1="80" x2="60" y2="440" stroke="#333"/>
  <line x1="60" y1="440" x2="530.0" y2="440" stroke="#333"/>
  <line x1="60" y1="440.0" x2="530.0" y2="440.0" stroke="#eee"/>
  <text x="52" y="444.0" text-anchor="end" font-family="Arial" font-size="11">0</text>
  <line x1="60" y1="350.0" x2="530.0" y2="350.0" stroke="#eee"/>
  <text x="52" y="354.0" text-anchor="end" font-family="Arial" font-size="11">13</text>
  <line x1="60" y1="260.0" x2="530.0" y2="260.0" stroke="#eee"/>
  <text x="52" y="264.0" text-anchor="end" font-family="Arial" font-size="11">25</text>
  <line x1="60" y1="170.0" x2="530.0" y2="170.0" stroke="#eee"/>
  <text x="52" y="174.0" text-anchor="end" font-family="Arial" font-size="11">38</text>
  <line x1="60" y1="80.0" x2="530.0" y2="80.0" stroke="#eee"/>
  <text x="52" y="84.0" text-anchor="end" font-family="Arial" font-size="11">51</text>
  <rect x="80.0" y="178.3" width="26.0" height="261.7" fill="#4C78A8"/>
  <rect x="108.0" y="140.0" width="26.0" height="300.0" fill="#F58518"/>
  <text x="107.0" y="460" text-anchor="middle" font-family="Arial" font-size="11" transform="rotate(35 107.0,460)">0.0-0.2</text>
  <rect x="174.0" y="252.0" width="26.0" height="188.0" fill="#4C78A8"/>
  <rect x="202.0" y="234.3" width="26.0" height="205.7" fill="#F58518"/>
  <text x="201.0" y="460" text-anchor="middle" font-family="Arial" font-size="11" transform="rotate(35 201.0,460)">0.2-0.4</text>
  <rect x="268.0" y="322.8" width="26.0" height="117.2" fill="#4C78A8"/>
  <rect x="296.0" y="320.5" width="26.0" height="119.5" fill="#F58518"/>
  <text x="295.0" y="460" text-anchor="middle" font-family="Arial" font-size="11" transform="rotate(35 295.0,460)">0.4-0.6</text>
  <rect x="362.0" y="356.4" width="26.0" height="83.6" fill="#4C78A8"/>
  <rect x="390.0" y="358.0" width="26.0" height="82.0" fill="#F58518"/>
  <text x="389.0" y="460" text-anchor="middle" font-family="Arial" font-size="11" transform="rotate(35 389.0,460)">0.6-0.8</text>
  <rect x="456.0" y="378.6" width="26.0" height="61.4" fill="#4C78A8"/>
  <rect x="484.0" y="435.3" width="26.0" height="4.7" fill="#F58518"/>
  <text x="483.0" y="460" text-anchor="middle" font-family="Arial" font-size="11" transform="rotate(35 483.0,460)">0.8-1.0</text>
  <text x="825.0" y="58" text-anchor="middle" font-family="Arial" font-size="15" font-weight="700">By normalized response y</text>
  <line x1="590.0" y1="80" x2="590.0" y2="440" stroke="#333"/>
  <line x1="590.0" y1="440" x2="1060.0" y2="440" stroke="#333"/>
  <line x1="590.0" y1="440.0" x2="1060.0" y2="440.0" stroke="#eee"/>
  <text x="582.0" y="444.0" text-anchor="end" font-family="Arial" font-size="11">0</text>
  <line x1="590.0" y1="350.0" x2="1060.0" y2="350.0" stroke="#eee"/>
  <text x="582.0" y="354.0" text-anchor="end" font-family="Arial" font-size="11">12</text>
  <line x1="590.0" y1="260.0" x2="1060.0" y2="260.0" stroke="#eee"/>
  <text x="582.0" y="264.0" text-anchor="end" font-family="Arial" font-size="11">23</text>
  <line x1="590.0" y1="170.0" x2="1060.0" y2="170.0" stroke="#eee"/>
  <text x="582.0" y="174.0" text-anchor="end" font-family="Arial" font-size="11">35</text>
  <line x1="590.0" y1="80.0" x2="1060.0" y2="80.0" stroke="#eee"/>
  <text x="582.0" y="84.0" text-anchor="end" font-family="Arial" font-size="11">47</text>
  <rect x="610.0" y="184.2" width="26.0" height="255.8" fill="#4C78A8"/>
  <rect x="638.0" y="158.6" width="26.0" height="281.4" fill="#F58518"/>
  <text x="637.0" y="460" text-anchor="middle" font-family="Arial" font-size="11" transform="rotate(35 637.0,460)">0.0-0.2</text>
  <rect x="704.0" y="378.4" width="26.0" height="61.6" fill="#4C78A8"/>
  <rect x="732.0" y="273.3" width="26.0" height="166.7" fill="#F58518"/>
  <text x="731.0" y="460" text-anchor="middle" font-family="Arial" font-size="11" transform="rotate(35 731.0,460)">0.2-0.4</text>
  <rect x="798.0" y="378.0" width="26.0" height="62.0" fill="#4C78A8"/>
  <rect x="826.0" y="303.0" width="26.0" height="137.0" fill="#F58518"/>
  <text x="825.0" y="460" text-anchor="middle" font-family="Arial" font-size="11" transform="rotate(35 825.0,460)">0.4-0.6</text>
  <rect x="892.0" y="348.8" width="26.0" height="91.2" fill="#4C78A8"/>
  <rect x="920.0" y="328.0" width="26.0" height="112.0" fill="#F58518"/>
  <text x="919.0" y="460" text-anchor="middle" font-family="Arial" font-size="11" transform="rotate(35 919.0,460)">0.6-0.8</text>
  <rect x="986.0" y="140.0" width="26.0" height="300.0" fill="#4C78A8"/>
  <rect x="1014.0" y="366.4" width="26.0" height="73.6" fill="#F58518"/>
  <text x="1013.0" y="460" text-anchor="middle" font-family="Arial" font-size="11" transform="rotate(35 1013.0,460)">0.8-1.0</text>
  <rect x="60" y="35" width="14" height="10" fill="#4C78A8"/><text x="80" y="44" font-family="Arial" font-size="12">Point share</text>
  <rect x="175" y="35" width="14" height="10" fill="#F58518"/><text x="195" y="44" font-family="Arial" font-size="12">Squared-error share</text>
  <text x="22" y="260.0" text-anchor="middle" font-family="Arial" font-size="13" transform="rotate(-90 22,260.0)">Share (%)</text>
</svg>
